<svg xmlns="http://www.w3.org/2000/svg" width="16" height="18" viewBox="0 0 16 18" fill="none">
  <path fill-rule="evenodd" clip-rule="evenodd" d="M0.500001 8.1635C0.501625 4.02274 3.85886 0.666504 8 0.666504C12.1378 0.666504 15.493 4.01736 15.5 8.15352C15.5037 8.40467 15.3943 8.6546 15.1816 8.82175L10.5216 12.4832C11.4813 12.8324 12.1667 13.7527 12.1667 14.8332C12.1667 16.2139 11.0474 17.3332 9.66667 17.3332H6.33333C4.95263 17.3332 3.83333 16.2139 3.83333 14.8332C3.83333 13.7527 4.51874 12.8323 5.47847 12.4831L0.823872 8.82596C0.807119 8.81302 0.790808 8.79941 0.774981 8.78512L0.772208 8.78261C0.64804 8.66975 0.565168 8.52649 0.526038 8.3732C0.508899 8.30628 0.5 8.23688 0.5 8.1665L0.500001 8.1635ZM3.49989 8.80897L7.16667 11.69V8.59547C6.06149 8.62561 4.81202 8.70671 3.75301 8.789C3.66723 8.79566 3.5828 8.80233 3.49989 8.80897ZM8.83333 8.59547V11.6901L12.5002 8.80897C12.4172 8.80233 12.3328 8.79567 12.247 8.789C11.188 8.70671 9.93851 8.62561 8.83333 8.59547ZM3.62389 7.12734C3.09916 7.16811 2.62411 7.20888 2.23928 7.24349C2.6817 4.46043 5.09242 2.33317 8 2.33317C10.9076 2.33317 13.3183 4.46043 13.7607 7.24349C13.3759 7.20888 12.9008 7.16811 12.3761 7.12734C11.0315 7.02287 9.3382 6.9165 8 6.9165C6.6618 6.9165 4.96847 7.02287 3.62389 7.12734ZM5.5 14.8332C5.5 14.3729 5.87309 13.9998 6.33333 13.9998H9.66667C10.1269 13.9998 10.5 14.3729 10.5 14.8332C10.5 15.2934 10.1269 15.6665 9.66667 15.6665H6.33333C5.87309 15.6665 5.5 15.2934 5.5 14.8332Z" fill="currentColor"/>
</svg>