<svg width="32" height="12" viewBox="0 0 32 12" fill="currentColor"
  xmlns="http://www.w3.org/2000/svg">
  <path fill-rule="evenodd" clip-rule="evenodd"
    d="M7.28174 1.54707C6.94301 1.95245 6.40096 2.27214 5.8589 2.22645C5.79112 1.67837 6.05645 1.09608 6.36707 0.736474C6.70579 0.319693 7.29868 0.0228065 7.77866 0C7.83512 0.570886 7.61492 1.13037 7.28174 1.54707ZM7.77296 2.33494C7.29547 2.30715 6.85974 2.48013 6.50776 2.61986C6.2813 2.7098 6.08945 2.78593 5.94354 2.78593C5.7798 2.78593 5.58008 2.7057 5.35587 2.6156C5.06204 2.49763 4.72612 2.36272 4.37383 2.36915C3.56644 2.38063 2.81544 2.84302 2.40323 3.57942C1.55626 5.05237 2.18304 7.23312 3.00174 8.43199C3.4027 9.02568 3.8826 9.67655 4.515 9.65366C4.79326 9.64306 4.99338 9.55721 5.20048 9.46832C5.43891 9.36601 5.68665 9.25977 6.07339 9.25977C6.44681 9.25977 6.68371 9.36328 6.91105 9.46261C7.12723 9.55713 7.3349 9.6478 7.64311 9.64226C8.29815 9.63085 8.71028 9.04856 9.11124 8.45479C9.54384 7.81758 9.73392 7.1957 9.76283 7.10134L9.7662 7.09042C9.7662 7.09042 9.76018 7.0872 9.7507 7.08287C9.60607 7.01589 8.50068 6.50427 8.49008 5.13227C8.47948 3.9807 9.36685 3.39721 9.50658 3.30534C9.51509 3.29972 9.52079 3.29594 9.52336 3.29402C8.95874 2.44913 8.07788 2.35774 7.77296 2.33494ZM12.307 9.57946V0.679377H15.6102C17.3155 0.679377 18.5069 1.86676 18.5069 3.6023C18.5069 5.33777 17.2928 6.53663 15.5651 6.53663H13.6735V9.57946H12.307ZM13.6735 1.84395H15.2488C16.4346 1.84395 17.1121 2.48334 17.1121 3.60801C17.1121 4.73267 16.4346 5.37776 15.2432 5.37776H13.6735V1.84395ZM23.0183 8.51189C22.6569 9.20837 21.8608 9.64796 21.0026 9.64796C19.7321 9.64796 18.8456 8.88298 18.8456 7.7298C18.8456 6.58803 19.7039 5.93154 21.2906 5.83445L22.9957 5.73166V5.24076C22.9957 4.51569 22.5271 4.1218 21.6914 4.1218C21.0026 4.1218 20.5 4.48148 20.3984 5.02948H19.1675C19.207 3.8763 20.2798 3.03712 21.7309 3.03712C23.295 3.03712 24.3114 3.8649 24.3114 5.14937V9.57946H23.0466V8.51189H23.0183ZM21.3696 8.59187C20.6412 8.59187 20.1782 8.23789 20.1782 7.69551C20.1782 7.13611 20.6243 6.81064 21.4769 6.75932L22.9957 6.66223V7.16462C22.9957 7.9981 22.2956 8.59187 21.3696 8.59187ZM28.5066 9.92774C27.959 11.4862 27.3322 12 25.9996 12C25.898 12 25.5592 11.9886 25.4801 11.9658V10.8982C25.5649 10.9096 25.7738 10.921 25.8811 10.921C26.4852 10.921 26.824 10.6641 27.0329 9.99624L27.1571 9.60226L24.8421 3.12273H26.2706L27.8799 8.38059H27.9081L29.5174 3.12273H30.9064L28.5066 9.92774Z"
  />
</svg>