<svg width="32" height="32" viewBox="0 0 32 32" fill="none" xmlns="http://www.w3.org/2000/svg">
<g clip-path="url(#clip0_15_275)">
<path d="M2.89282 9.72797V22.272C2.89282 23.0784 3.31522 23.808 4.01922 24.2176L14.8864 30.4896C15.5776 30.8864 16.4352 30.8864 17.1264 30.4896L27.9936 24.2176C28.6848 23.8208 29.12 23.0784 29.12 22.272V9.72797C29.12 8.92157 28.6976 8.19197 27.9936 7.78237L17.1264 1.51037C16.4352 1.11357 15.5776 1.11357 14.8864 1.51037L4.01922 7.78237C3.32802 8.17917 2.90562 8.92157 2.90562 9.72797H2.89282Z" fill="#213147"/>
<path d="M18.3679 18.4321L16.8191 22.6817C16.7807 22.7969 16.7807 22.9249 16.8191 23.0529L19.4815 30.3617L22.5663 28.5825L18.8671 18.4321C18.7775 18.2017 18.4575 18.2017 18.3679 18.4321Z" fill="#12AAFF"/>
<path d="M21.4784 11.2896C21.3888 11.0592 21.0688 11.0592 20.9792 11.2896L19.4304 15.5392C19.392 15.6544 19.392 15.7824 19.4304 15.9104L23.7952 27.8784L26.88 26.0992L21.4784 11.3024V11.2896Z" fill="#12AAFF"/>
<path d="M16 1.984C16.0768 1.984 16.1536 2.0096 16.2176 2.048L27.968 8.832C28.1088 8.9088 28.1856 9.0624 28.1856 9.216V22.784C28.1856 22.9376 28.096 23.0912 27.968 23.168L16.2176 29.952C16.1536 29.9904 16.0768 30.016 16 30.016C15.9232 30.016 15.8464 29.9904 15.7824 29.952L4.03203 23.168C3.89123 23.0912 3.81443 22.9376 3.81443 22.784V9.2032C3.81443 9.0496 3.90403 8.896 4.03203 8.8192L15.7824 2.0352C15.8464 1.9968 15.9232 1.9712 16 1.9712V1.984ZM16 0C15.5776 0 15.168 0.1024 14.784 0.32L3.03363 7.104C2.27843 7.5392 1.81763 8.3328 1.81763 9.2032V22.7712C1.81763 23.6416 2.27843 24.4352 3.03363 24.8704L14.784 31.6544C15.1552 31.872 15.5776 31.9744 16 31.9744C16.4224 31.9744 16.832 31.872 17.216 31.6544L28.9664 24.8704C29.7216 24.4352 30.1824 23.6416 30.1824 22.7712V9.2032C30.1824 8.3328 29.7216 7.5392 28.9664 7.104L17.2032 0.32C16.832 0.1024 16.4096 0 15.9872 0H16Z" fill="#9DCCED"/>
<path d="M8.21753 27.8912L9.30553 24.9216L11.4815 26.7264L9.44633 28.5952L8.21753 27.8912Z" fill="#213147"/>
<path d="M15.0016 8.24315H12.0192C11.8016 8.24315 11.5968 8.38395 11.52 8.58875L5.13281 26.0991L8.21761 27.8783L15.2576 8.58875C15.3216 8.40955 15.1936 8.23035 15.0144 8.23035L15.0016 8.24315Z" fill="white"/>
<path d="M20.2239 8.24315H17.2415C17.0239 8.24315 16.8191 8.38395 16.7423 8.58875L9.44629 28.5823L12.5311 30.3615L20.4671 8.58875C20.5311 8.40955 20.4031 8.23035 20.2239 8.23035V8.24315Z" fill="white"/>
</g>
<defs>
<clipPath id="clip0_15_275">
<rect width="32" height="32" fill="white"/>
</clipPath>
</defs>
</svg>
