<svg width="27" height="27" viewBox="0 0 27 27" fill="none" xmlns="http://www.w3.org/2000/svg">
<path d="M27 13.5C27 22.8198 22.8198 27 13.5 27C4.1802 27 0 22.8198 0 13.5C0 4.1802 4.1802 0 13.5 0C22.8198 0 27 4.1802 27 13.5Z" fill="#44D62C"/>
<path d="M14.7198 5.72461L10.9642 5.72461L10.3053 7.71692H12.3913V11.9135H14.7198V5.72461Z" fill="black"/>
<path fill-rule="evenodd" clip-rule="evenodd" d="M17.7833 16.9925C17.7833 19.358 15.8657 21.2756 13.5002 21.2756C11.1347 21.2756 9.21704 19.358 9.21704 16.9925C9.21704 14.627 11.1347 12.7094 13.5002 12.7094C15.8657 12.7094 17.7833 14.627 17.7833 16.9925ZM15.8388 16.9925C15.8388 18.2841 14.7917 19.3312 13.5002 19.3312C12.2086 19.3312 11.1615 18.2841 11.1615 16.9925C11.1615 15.7009 12.2086 14.6539 13.5002 14.6539C14.7917 14.6539 15.8388 15.7009 15.8388 16.9925Z" fill="black"/>
</svg>
