<svg width="32" height="12" viewBox="0 0 32 12" fill="currentColor"
  xmlns="http://www.w3.org/2000/svg">
  <g clip-path="url(#clip0_22357_29550)">
    <path
      d="M28.3984 7.68457H28.4219L30.1641 3.39258H31.3945L27.627 12H26.4609L27.8623 8.98828L25.3779 3.39258H26.6084L28.3984 7.68457Z"
    />
    <path
      d="M5.64941 0C7.00986 0 8.15023 0.496024 9.02441 1.30469L7.58496 2.7334C7.05926 2.23648 6.39291 1.98242 5.64941 1.98242C4.33391 1.98259 3.21815 2.86298 2.81836 4.0498L2.81641 4.04785C2.71479 4.35048 2.65918 4.67294 2.65918 5.00586C2.65923 5.33891 2.71558 5.66106 2.81738 5.96387L2.81641 5.96484H2.81836C3.21809 7.15178 4.33384 8.03206 5.64941 8.03223C6.3305 8.03223 6.91312 7.8555 7.36523 7.55273C7.91087 7.18792 8.26718 6.64096 8.37793 5.99902L5.64941 5.99805V4.06836H10.3877C10.4488 4.40498 10.4814 4.7552 10.4814 5.12109C10.4814 6.64356 9.93848 7.93281 8.99023 8.80469H8.98828C8.15532 9.57015 7.01109 10.0146 5.64941 10.0146C3.67856 10.0145 1.97262 8.89195 1.14258 7.25586V7.25391L1.1416 7.25488C0.799058 6.5785 0.605536 5.81489 0.605469 5.00586C0.605469 4.19655 0.798411 3.43236 1.1416 2.75586H1.14453C1.97517 1.1216 3.68041 0.000141748 5.64941 0Z"
    />
    <path fill-rule="evenodd" clip-rule="evenodd"
      d="M22.5469 3.20117C23.3827 3.20121 24.0416 3.42387 24.5244 3.86816C25.0071 4.31262 25.249 4.92045 25.249 5.69238V9.37598H24.1719V8.5459H24.124C23.659 9.22992 23.0348 9.56934 22.2578 9.56934C21.5928 9.56927 21.0392 9.37611 20.5918 8.98438C20.1445 8.5926 19.9209 8.10716 19.9209 7.52246C19.9209 6.90281 20.1561 6.41129 20.627 6.04883C21.0979 5.68037 21.7287 5.49902 22.5117 5.49902C23.1827 5.49908 23.7363 5.6227 24.166 5.86816V5.61035C24.166 5.21868 24.0122 4.89103 23.7002 4.61621C23.3883 4.34143 23.0234 4.20703 22.6055 4.20703C21.9757 4.20705 21.4753 4.47003 21.1104 5.00195L20.1152 4.38281C20.6627 3.59336 21.4753 3.20117 22.5469 3.20117ZM22.6992 6.3877C22.2403 6.38776 21.8577 6.49955 21.5518 6.71582C21.2397 6.9438 21.0869 7.21845 21.0869 7.54004C21.0869 7.83246 21.2098 8.07851 21.4629 8.27148C21.7102 8.46447 22.0052 8.56348 22.3408 8.56348C22.8176 8.56342 23.2414 8.38788 23.6123 8.03711C23.983 7.68628 24.1718 7.27715 24.1719 6.80371C23.8187 6.52889 23.3292 6.3877 22.6992 6.3877Z"
    />
    <path fill-rule="evenodd" clip-rule="evenodd"
      d="M16.8408 0.636719C17.6002 0.636719 18.2484 0.888651 18.7783 1.3916C19.3198 1.89437 19.5908 2.50843 19.5908 3.2334C19.5907 3.97586 19.3199 4.58988 18.7783 5.08691C18.2544 5.58391 17.6062 5.8291 16.8408 5.8291H14.9746V9.37305H13.8447V0.636719H16.8408ZM14.9746 4.75977H16.8652C17.3125 4.75967 17.6892 4.60679 17.9834 4.30859C18.2835 4.01056 18.4364 3.64831 18.4365 3.23926C18.4365 2.83584 18.2836 2.47893 17.9834 2.18066C17.6892 1.87091 17.3183 1.71884 16.8652 1.71875H14.9746V4.75977Z"
    />
  </g>
</svg>