<svg width="32" height="32" viewBox="0 0 32 32" fill="none" xmlns="http://www.w3.org/2000/svg">
<g clip-path="url(#clip0_15_312)">
<path fill-rule="evenodd" clip-rule="evenodd" d="M23.208 13.792C24.456 15.36 25.208 17.352 25.208 19.512C25.208 21.672 24.44 23.72 23.152 25.304L23.04 25.44L23.008 25.264C22.984 25.12 22.952 24.968 22.92 24.816C22.28 21.992 20.184 19.568 16.728 17.6C14.4 16.28 13.064 14.688 12.712 12.88C12.488 11.712 12.656 10.536 12.976 9.52803C13.304 8.52003 13.784 7.68003 14.192 7.17603L15.536 5.53603C15.768 5.24803 16.216 5.24803 16.448 5.53603L23.208 13.792ZM25.328 12.152L16.336 1.16003C16.168 0.952028 15.84 0.952028 15.672 1.16003L6.672 12.152L6.64 12.192C4.992 14.248 4 16.856 4 19.696C4 26.312 9.376 31.68 16 31.68C22.624 31.68 28 26.312 28 19.696C28 16.856 27.008 14.248 25.352 12.192L25.328 12.152ZM8.824 13.76L9.624 12.776L9.648 12.96C9.664 13.104 9.688 13.248 9.72 13.392C10.24 16.12 12.104 18.4 15.208 20.16C17.912 21.696 19.48 23.464 19.936 25.408C20.128 26.216 20.16 27.016 20.08 27.712L20.072 27.752L20.032 27.768C18.816 28.36 17.44 28.696 15.992 28.696C10.912 28.696 6.792 24.584 6.792 19.512C6.792 17.336 7.552 15.328 8.824 13.76Z" fill="#4DA2FF"/>
</g>
<defs>
<clipPath id="clip0_15_312">
<rect width="24" height="30.68" fill="white" transform="translate(4 1)"/>
</clipPath>
</defs>
</svg>
