<svg width="32" height="12" viewBox="0 0 32 12" fill="currentColor"
  xmlns="http://www.w3.org/2000/svg">
  <path
    d="M26.5382 9.88454L26.3062 8.72474H23.7145L23.3021 9.87629L21.2248 9.88041C22.2137 7.50221 23.2048 5.12489 24.198 2.74845C24.367 2.34536 24.667 2.14021 25.1093 2.14227C25.4475 2.14536 25.999 2.14536 26.765 2.1433L28.3712 9.88144L26.5382 9.88454ZM24.298 7.13608H25.9681L25.3444 4.22887L24.298 7.13608ZM10.9073 2.14124L12.9959 2.1433L9.76705 9.88557L7.65262 9.88351C7.12092 7.83847 6.59583 5.79173 6.07736 3.7433C5.97427 3.33505 5.77014 3.04948 5.37736 2.91443C5.02788 2.79381 4.4454 2.60825 3.62891 2.35567V2.14433H6.96602C7.54334 2.14433 7.88045 2.42371 7.9887 2.99691C8.09798 3.57113 8.3722 5.03299 8.81344 7.38247L10.9073 2.14124ZM15.866 2.1433L14.2145 9.88351L12.2268 9.88144L13.8763 2.14124L15.866 2.1433ZM19.8969 2C20.4918 2 21.2413 2.18557 21.6722 2.35567L21.3238 3.96083C20.9341 3.80412 20.2928 3.59278 19.7536 3.6C18.9701 3.6134 18.4856 3.94227 18.4856 4.25773C18.4856 4.77113 19.3268 5.0299 20.1928 5.59072C21.1815 6.2299 21.3114 6.80412 21.299 7.42784C21.2856 8.72268 20.1928 10 17.8877 10C16.8361 9.98454 16.4567 9.89588 15.599 9.59175L15.9619 7.91649C16.8351 8.28247 17.2052 8.39897 17.9516 8.39897C18.6351 8.39897 19.2217 8.12268 19.2268 7.64124C19.231 7.29897 19.0207 7.12887 18.2536 6.70619C17.4866 6.28247 16.4103 5.69588 16.4248 4.51856C16.4423 3.01134 17.8701 2 19.898 2H19.8969Z"
  />
</svg>