<svg width="24" height="24" viewBox="0 0 24 24" fill="currentColor"
  xmlns="http://www.w3.org/2000/svg">
  <path
    d="M7.72917 10.2444L12.0021 5.97322L16.2768 10.2479L18.7617 7.76129L12.0021 1L5.24255 7.75955L7.72917 10.2444Z"
  />
  <path d="M1 12.0007L3.4857 9.51502L5.97141 12.0007L3.4857 14.4864L1 12.0007Z" />
  <path
    d="M7.72917 13.7563L12.0021 18.0292L16.2768 13.7545L18.7634 16.2377L12.0021 23.0007L5.23908 16.2394L7.72917 13.7563Z"
  />
  <path d="M18.0286 12.0013L20.5143 9.51563L23 12.0013L20.5143 14.487L18.0286 12.0013Z" />
  <path
    d="M14.5235 11.9995L12.0021 9.47638L10.1376 11.3409L9.92211 11.5546L9.47727 11.9995L9.48074 12.0047L12.0021 14.5243L14.5252 11.9995H14.5235Z"
  />
</svg>