<svg width="24" height="24" viewBox="0 0 24 24" fill="currentColor"
  xmlns="http://www.w3.org/2000/svg">
  <path
    d="M12.0188 17C9.25118 17 7.00941 14.7624 7.00941 12C7.00941 9.23765 9.25059 7 12.0188 7C13.2008 7.00021 14.3445 7.41863 15.2476 8.18119C16.1506 8.94375 16.7547 10.0013 16.9529 11.1665H22C21.5741 6.03353 17.2706 2 12.0188 2C6.48765 2 2 6.47941 2 12C2 17.5206 6.48765 22 12.0188 22C17.27 22 21.5741 17.9665 22 12.8335H16.9529C16.7547 13.9987 16.1506 15.0562 15.2476 15.8188C14.3445 16.5814 13.2008 16.9998 12.0188 17Z"
  />
</svg>