<svg width="24" height="24" viewBox="0 0 24 24" fill="currentColor"
  xmlns="http://www.w3.org/2000/svg">
  <path
    d="M9.39805 9.1935H14.5974C14.8184 9.1935 14.9976 9.36083 14.9976 9.56779V14.4328C14.9976 14.6394 14.8184 14.8071 14.5974 14.8071H9.39805C9.17698 14.8071 8.99784 14.6394 8.99784 14.4328V9.56779C8.99784 9.36121 9.17698 9.1935 9.39805 9.1935Z"
  />
  <path
    d="M3.40021 3.5791H8.59953L8.59915 3.57948C8.82022 3.57948 8.99937 3.74681 8.99937 3.95378V8.81883C8.99937 9.02541 8.82022 9.19312 8.59915 9.19312H3.40021C3.17914 9.19312 3 9.02541 3 8.81883V3.95378C3 3.74681 3.17914 3.5791 3.40021 3.5791Z"
  />
  <path
    d="M15.4005 3.5791H20.6002L20.5998 3.57948C20.8209 3.57948 21 3.74681 21 3.95378V8.81883C21 9.02541 20.8209 9.19312 20.5998 9.19312H15.4008C15.1798 9.19312 15.0006 9.02541 15.0006 8.81883V3.95378C15.0006 3.74681 15.1798 3.5791 15.4005 3.5791Z"
  />
  <path
    d="M3.40021 14.8068H8.59953C8.8206 14.8068 8.99937 14.9745 8.99937 15.181V20.0465C8.99937 20.2527 8.82022 20.4204 8.59915 20.4204H3.40021C3.17914 20.4204 3 20.2531 3 20.0465V15.181C3 14.9745 3.17914 14.8068 3.40021 14.8068Z"
  />
  <path
    d="M15.4005 14.8068H20.5998C20.8209 14.8068 21 14.9745 21 15.181V20.0465C21 20.2527 20.8209 20.4204 20.5998 20.4204H15.4008C15.1798 20.4204 15.0006 20.2531 15.0006 20.0465V15.181C15.0006 14.9745 15.1798 14.8068 15.4005 14.8068Z"
  />
</svg>