<svg fill="none" viewBox="0 0 24 24" xmlns="http://www.w3.org/2000/svg">
  <path
    d="M23 12C23 19.5939 19.5939 23 12 23C4.40608 23 1 19.5939 1 12C1 4.40608 4.40608 1 12 1C19.5939 1 23 4.40608 23 12Z"
    fill="#44D62C"
  />
  <path
    d="M12.994 5.66455L9.93387 5.66455L9.39701 7.28792H11.0967V10.7074H12.994V5.66455Z"
    fill="black"
  />
  <path
    fill-rule="evenodd"
    clip-rule="evenodd"
    d="M15.4902 14.8458C15.4902 16.7733 13.9277 18.3358 12.0002 18.3358C10.0728 18.3358 8.51025 16.7733 8.51025 14.8458C8.51025 12.9184 10.0728 11.3559 12.0002 11.3559C13.9277 11.3559 15.4902 12.9184 15.4902 14.8458ZM13.9058 14.8458C13.9058 15.8982 13.0526 16.7514 12.0002 16.7514C10.9478 16.7514 10.0946 15.8982 10.0946 14.8458C10.0946 13.7934 10.9478 12.9403 12.0002 12.9403C13.0526 12.9403 13.9058 13.7934 13.9058 14.8458Z"
    fill="black"
  />
</svg>