<svg width="24" height="24" viewBox="0 0 24 24" fill="none" xmlns="http://www.w3.org/2000/svg">
  <path
    d="M15.3328 13.998C16.0701 13.998 16.6675 14.5956 16.6676 15.3328C16.6676 16.0701 16.0701 16.6676 15.3328 16.6676C14.5956 16.6675 13.998 16.07 13.998 15.3328C13.9981 14.5956 14.5957 13.9981 15.3328 13.998Z"
    fill="currentColor" />
  <path fill-rule="evenodd" clip-rule="evenodd"
    d="M12 0C18.6274 0 24 5.37258 24 12C24 18.6274 18.6274 24 12 24C5.37258 24 0 18.6274 0 12C0 5.37258 5.37258 0 12 0ZM7.99922 12.668C6.8958 12.6681 6.00133 13.5626 6.00117 14.666V15.9996C6.00117 17.1031 6.8957 17.9975 7.99922 17.9977H9.33281C10.4365 17.9977 11.3309 17.1032 11.3309 15.9996V14.666C11.3307 13.5625 10.4364 12.668 9.33281 12.668H7.99922ZM15.3328 12.668C13.8611 12.6681 12.6681 13.8611 12.668 15.3328C12.668 16.8046 13.861 17.9976 15.3328 17.9977C16.8047 17.9977 17.9977 16.8046 17.9977 15.3328C17.9976 13.861 16.8046 12.668 15.3328 12.668ZM7.99922 6.00117C6.8958 6.00133 6.00133 6.8958 6.00117 7.99922V9.33281C6.00117 10.4364 6.8957 11.3307 7.99922 11.3309H9.33281C10.4365 11.3309 11.3309 10.4365 11.3309 9.33281V7.99922C11.3307 6.8957 10.4364 6.00117 9.33281 6.00117H7.99922ZM14.666 6.00117C13.5626 6.00133 12.6681 6.8958 12.668 7.99922V9.33281C12.668 10.4364 13.5625 11.3307 14.666 11.3309H15.9996C17.1033 11.3309 17.9977 10.4365 17.9977 9.33281V7.99922C17.9975 6.8957 17.1032 6.00117 15.9996 6.00117H14.666Z"
    fill="currentColor" />
</svg>