<svg width="20" height="20" viewBox="0 0 20 20" fill="none" xmlns="http://www.w3.org/2000/svg">
  <path fill="currentColor" d="M7.70808 2.68655C7.88132 1.03901 9.35737 -0.156284 11.005 0.0166281L16.9727 0.643582C18.6203 0.816831 19.8155 2.29298 19.6427 3.94046V3.94144L18.7022 12.8916C18.529 14.5393 17.0522 15.7348 15.4044 15.5616L12.8555 15.293L12.8917 15.6368C13.0647 17.2844 11.8694 18.7604 10.2218 18.9336L4.25495 19.5606C2.60719 19.7338 1.13029 18.5384 0.957102 16.8907L0.0166719 7.94046C-0.156486 6.29271 1.03887 4.81585 2.68659 4.64261L7.55574 4.13089L7.70808 2.68655ZM8.86238 6.00491L2.89558 6.63187C2.3466 6.68968 1.94849 7.18144 2.00593 7.7305L2.94636 16.6817C3.00409 17.2309 3.49675 17.629 4.04597 17.5713L10.0128 16.9444C10.562 16.8865 10.96 16.3947 10.9024 15.8457L9.96199 6.89456C9.90413 6.34534 9.41152 5.9472 8.86238 6.00491ZM10.796 2.00589C10.247 1.94839 9.75518 2.34644 9.69734 2.89554L9.57429 4.06155C10.8195 4.31854 11.8112 5.35382 11.9512 6.68558L12.6417 13.2598L15.6134 13.5723C16.1625 13.63 16.6552 13.232 16.713 12.6827L17.6534 3.73147C17.7108 3.18242 17.3127 2.69067 16.7637 2.63284L10.796 2.00589Z"/>
</svg>
