<svg width="28" height="28" viewBox="0 0 28 28" fill="none" xmlns="http://www.w3.org/2000/svg">
<g clip-path="url(#clip0_4970_7576)">
<mask id="mask0_4970_7576" style="mask-type:luminance" maskUnits="userSpaceOnUse" x="0" y="0" width="28" height="28">
<path d="M28 0H0V28H28V0Z" fill="white"/>
</mask>
<g mask="url(#mask0_4970_7576)">
<path d="M13.9575 19.9861C15.2928 19.9861 16.3753 18.9036 16.3753 17.5682C16.3753 16.2329 15.2928 15.1504 13.9575 15.1504C12.6222 15.1504 11.5396 16.2329 11.5396 17.5682C11.5396 18.9036 12.6222 19.9861 13.9575 19.9861Z" fill="#44D62C"/>
<path fill-rule="evenodd" clip-rule="evenodd" d="M13.9573 27.9147C23.5928 27.9147 27.9147 23.5928 27.9147 13.9573C27.9147 4.3218 23.5928 0 13.9573 0C4.3218 0 0 4.3218 0 13.9573C0 23.5928 4.3218 27.9147 13.9573 27.9147ZM11.3355 5.9184H15.2184V12.317H12.811V7.97821H10.6543L11.3355 5.9184ZM13.9574 21.9963C16.403 21.9963 18.3856 20.0137 18.3856 17.568C18.3856 15.1224 16.403 13.1398 13.9574 13.1398C11.5118 13.1398 9.52919 15.1224 9.52919 17.568C9.52919 20.0137 11.5118 21.9963 13.9574 21.9963Z" fill="#44D62C"/>
</g>
</g>
<defs>
<clipPath id="clip0_4970_7576">
<rect width="28" height="28" fill="white"/>
</clipPath>
</defs>
</svg>
