<svg width="128" height="128" viewBox="0 0 128 128" fill="none" xmlns="http://www.w3.org/2000/svg">
<path d="M128 64C128 108.183 108.183 128 64 128C19.8172 128 0 108.183 0 64C0 19.8172 19.8172 0 64 0C108.183 0 128 19.8172 128 64Z" fill="#44D62C"/>
<path d="M69.7826 27.1382L51.9782 27.1382L48.8546 36.5832H58.7437L58.7437 56.4782H69.7826V27.1382Z" fill="black"/>
<path fill-rule="evenodd" clip-rule="evenodd" d="M84.3056 80.5565C84.3056 91.7707 75.2147 100.862 64.0005 100.862C52.7862 100.862 43.6953 91.7707 43.6953 80.5565C43.6953 69.3422 52.7862 60.2513 64.0005 60.2513C75.2147 60.2513 84.3056 69.3422 84.3056 80.5565ZM75.0873 80.5564C75.0873 86.6795 70.1235 91.6433 64.0004 91.6433C57.8773 91.6433 52.9136 86.6795 52.9136 80.5564C52.9136 74.4333 57.8773 69.4695 64.0004 69.4695C70.1235 69.4695 75.0873 74.4333 75.0873 80.5564Z" fill="black"/>
</svg>
