<svg width="296" height="296" viewBox="0 0 296 296" fill="none" xmlns="http://www.w3.org/2000/svg">
<path d="M296 148C296 250.173 250.173 296 148 296C45.8273 296 0 250.173 0 148C0 45.8273 45.8273 0 148 0C250.173 0 296 45.8273 296 148Z" fill="#44D62C"/>
<path d="M161.372 62.7568L120.2 62.7568L112.976 84.5985H135.845V130.606H161.372V62.7568Z" fill="black"/>
<path fill-rule="evenodd" clip-rule="evenodd" d="M194.957 186.287C194.957 212.22 173.934 233.242 148.001 233.242C122.068 233.242 101.045 212.22 101.045 186.287C101.045 160.354 122.068 139.331 148.001 139.331C173.934 139.331 194.957 160.354 194.957 186.287ZM173.639 186.286C173.639 200.446 162.161 211.925 148.001 211.925C133.841 211.925 122.363 200.446 122.363 186.286C122.363 172.127 133.841 160.648 148.001 160.648C162.161 160.648 173.639 172.127 173.639 186.286Z" fill="black"/>
</svg>
