<svg xmlns="http://www.w3.org/2000/svg" width="24" height="24" viewBox="0 0 24 24" fill="none">
  <path fill-rule="evenodd" clip-rule="evenodd" d="M7.75 2C6.09315 2 4.75 3.34315 4.75 5V19C4.75 20.6569 6.09315 22 7.75 22H16.25C17.9069 22 19.25 20.6569 19.25 19V5C19.25 3.34315 17.9069 2 16.25 2H7.75ZM6.75 5C6.75 4.44772 7.19772 4 7.75 4H16.25C16.8023 4 17.25 4.44772 17.25 5V18C17.25 18.5523 16.8023 19 16.25 19H7.75C7.19772 19 6.75 18.5523 6.75 18V5Z" fill="currentColor" />
  <path d="M12.9559 7H10.7824L10.4011 8.15303H11.6083V10.5818H12.9559V7Z" fill="currentColor" />
  <path fill-rule="evenodd" clip-rule="evenodd" d="M14.7289 13.5212C14.7289 14.8902 13.6191 16 12.2501 16C10.881 16 9.77124 14.8902 9.77124 13.5212C9.77124 12.1522 10.881 11.0424 12.2501 11.0424C13.6191 11.0424 14.7289 12.1522 14.7289 13.5212ZM12.25 14.8746C12.9975 14.8746 13.6035 14.2687 13.6035 13.5212C13.6035 12.7737 12.9975 12.1677 12.25 12.1677C11.5025 12.1677 10.8966 12.7737 10.8966 13.5212C10.8966 14.2687 11.5025 14.8746 12.25 14.8746Z" fill="currentColor" />
</svg>