<svg width="48" height="48" viewBox="0 0 48 48" fill="none" xmlns="http://www.w3.org/2000/svg">
<path d="M48 24C48 40.5685 40.5685 48 24 48C7.43146 48 0 40.5685 0 24C0 7.43146 7.43146 0 24 0C40.5685 0 48 7.43146 48 24Z" fill="#2C10A9" style="fill:#2C10A9;fill:color(display-p3 0.1737 0.0637 0.6639);fill-opacity:1;"/>
<path d="M26.1685 10.1769L19.4918 10.1769L18.3205 13.7188H22.0289V21.1794H26.1685V10.1769Z" fill="#3FEF22" style="fill:#3FEF22;fill:color(display-p3 0.2471 0.9373 0.1333);fill-opacity:1;"/>
<path fill-rule="evenodd" clip-rule="evenodd" d="M31.6146 30.2087C31.6146 34.4141 28.2055 37.8232 24.0002 37.8232C19.7948 37.8232 16.3857 34.4141 16.3857 30.2087C16.3857 26.0034 19.7948 22.5943 24.0002 22.5943C28.2055 22.5943 31.6146 26.0034 31.6146 30.2087ZM28.1577 30.2087C28.1577 32.5049 26.2963 34.3663 24.0002 34.3663C21.704 34.3663 19.8426 32.5049 19.8426 30.2087C19.8426 27.9125 21.704 26.0511 24.0002 26.0511C26.2963 26.0511 28.1577 27.9125 28.1577 30.2087Z" fill="#3FEF22" style="fill:#3FEF22;fill:color(display-p3 0.2471 0.9373 0.1333);fill-opacity:1;"/>
</svg>
